<svg xmlns="http://www.w3.org/2000/svg" viewBox="0 0 153.62 122.15"><defs><style>.cls-1{fill:#06b2bc;}.cls-2{fill:#0b069c;}</style></defs><g id="Layer_2" data-name="Layer 2"><g id="Layer_1-2" data-name="Layer 1"><path class="cls-1" d="M141.2,52.55l-7.91-25a4.08,4.08,0,0,0-7.86.28l-9.51,39.57L105.71,9.92h0A4.14,4.14,0,0,0,97.6,9.7L87.22,54,81.74,37.71A4,4,0,0,0,78.07,35a3.91,3.91,0,0,0-3.83,2.48L67.31,54.4H30.47v8.52H73l4.5-11,6.64,19.78a4,4,0,0,0,7.74-.37l9.13-39,10.31,58.05a3.89,3.89,0,0,0,3.78,3.27h.12a3.89,3.89,0,0,0,3.85-3L130,45.35l5,15.72h18.66V52.55Z"/><path class="cls-2" d="M62,101.69a43.6,43.6,0,0,1-24.27-7.35,44.31,44.31,0,0,1-10.27-9.53A43.81,43.81,0,0,1,87.23,22L90.61,7.61A57.81,57.81,0,0,0,17.49,94.77L2.05,110.2a7,7,0,1,0,9.9,9.9l15.72-15.72a57.72,57.72,0,0,0,77.27-7.85L101.46,76.9A43.9,43.9,0,0,1,62,101.69Z"/></g></g></svg>